#!OML:ASF F:\VICON\USERDATA\INSTALL\rory3\rory3.ASF
:FULLY-SPECIFIED
:DEGREES
152
root -3.27277 17.0922 23.4567 173.221 17.4709 -174.688
lowerback -6.52952 -3.21845 3.36361
upperback -4.91382 -4.0126 2.95317
thorax -1.44888 -1.86825 0.953092
lowerneck -11.964 -2.86233 -4.99273
upperneck 37.9194 0.43905 -0.0349643
head 15.327 0.737425 1.29482
rclavicle -4.25399e-014 4.77083e-015
rhumerus -19.7906 41.6996 -97.2819
rradius 122.517
rwrist -11.4025
rhand -16.7165 -62.2622
rfingers 7.12502
rthumb -170.491 272.028
lclavicle -4.25399e-014 4.77083e-015
lhumerus 60.6507 -0.869555 48.6777
lradius 85.114
lwrist 93.3049
lhand -47.8139 -9.65206
lfingers 7.12502
lthumb -20.4896 19.2868
rfemur -67.5732 -9.11063 38.2018
rtibia 82.1127
rfoot -3.26524 -9.25975
rtoes 1.69635
lfemur -18.8383 7.90526 -22.644
ltibia 42.8122
lfoot -21.8166 4.34678
ltoes 4.97205
153
root -3.2725 17.077 23.5005 173.062 17.2275 -174.623
lowerback -6.71143 -3.31339 3.50621
upperback -4.83129 -4.16114 2.94059
thorax -1.27593 -1.94464 0.840708
lowerneck -11.8942 -2.85023 -4.87633
upperneck 37.842 0.480723 -0.224721
head 15.2712 0.744864 1.19787
rclavicle -4.9895e-014 -6.36111e-015
rhumerus -19.5567 41.8441 -97.3359
rradius 122.433
rwrist -11.3411
rhand -16.0045 -63.012
rfingers 7.12502
rthumb -169.804 272.745
lclavicle -4.9895e-014 -6.36111e-015
lhumerus 60.5239 -0.689982 48.8092
lradius 85.2095
lwrist 93.8331
lhand -48.365 -8.82423
lfingers 7.12502
lthumb -21.019 20.0567
rfemur -67.5135 -9.1748 38.3359
rtibia 82.243
rfoot -3.04578 -9.09501
rtoes 1.63167
lfemur -18.9818 7.98569 -22.5256
ltibia 43.0492
lfoot -21.6835 3.94736
ltoes 5.196
154
root -3.27622 17.07 23.5368 172.831 16.9879 -174.748
lowerback -7.20375 -3.31643 3.65972
upperback -4.57558 -4.23231 2.74713
thorax -0.765679 -1.98746 0.515174
lowerneck -11.8857 -2.80758 -4.75486
upperneck 37.6418 0.43042 -0.146639
head 15.1677 0.738904 1.19362
rclavicle -1.63003e-014 1.03368e-014
rhumerus -19.0429 41.8469 -97.2578
rradius 122.054
rwrist -11.073
rhand -16.0038 -62.824
rfingers 7.12502
rthumb -169.803 272.557
lclavicle -1.63003e-014 1.03368e-014
lhumerus 60.6868 -0.586074 48.793
lradius 85.1403
lwrist 93.5841
lhand -48.2916 -8.13354
lfingers 7.12502
lthumb -20.9485 20.7552
rfemur -67.4395 -9.3422 38.236
rtibia 82.4387
rfoot -2.97333 -9.01331
rtoes 1.90897
lfemur -19.0037 8.07988 -22.6334
ltibia 43.1948
lfoot -21.6013 3.58794
ltoes 5.4991
155
root -3.281 17.0637 23.57 172.599 16.8737 -174.835
lowerback -7.17744 -3.25568 3.71109
upperback -4.6335 -4.14667 2.69156
thorax -0.846954 -1.94646 0.438583
lowerneck -11.7089 -2.9888 -4.82928
upperneck 37.8902 0.262464 -0.186619
head 15.2565 0.678561 1.17414
rclavicle 7.27552e-014 3.65764e-014
rhumerus -19.1876 41.732 -97.2929
rradius 121.658
rwrist -10.8143
rhand -16.1662 -62.2283
rfingers 7.12502
rthumb -169.96 271.969
lclavicle 7.27552e-014 3.65764e-014
lhumerus 60.5307 -0.804979 48.8661
lradius 84.9219
lwrist 92.9138
lhand -47.7866 -8.67387
lfingers 7.12502
lthumb -20.4634 20.2678
rfemur -67.3125 -9.41871 38.1913
rtibia 82.6522
rfoot -2.96084 -8.98386
rtoes 2.47838
lfemur -18.9539 8.18019 -22.6945
ltibia 43.2848
lfoot -21.5685 3.35091
ltoes 5.54868
156
root -3.2832 17.0476 23.6045 172.361 16.7293 -175.03
lowerback -7.16355 -3.28586 3.56675
upperback -4.75941 -4.16207 2.69813
thorax -0.973997 -1.94912 0.529553
lowerneck -11.2307 -3.37771 -5.17814
upperneck 38.5094 0.0708044 -0.502467
head 15.4723 0.568601 1.09763
rclavicle -1.94809e-014 2.14687e-014
rhumerus -19.3818 41.7802 -97.3771
rradius 121.955
rwrist -11.459
rhand -15.5251 -62.6062
rfingers 7.12502
rthumb -169.342 272.316
lclavicle -1.94809e-014 2.14687e-014
lhumerus 60.1099 -0.904201 48.9231
lradius 84.7316
lwrist 92.7832
lhand -47.5778 -9.77963
lfingers 7.12502
lthumb -20.2627 19.1834
rfemur -67.2692 -9.51376 38.069
rtibia 82.9296
rfoot -2.9856 -8.87216
rtoes 2.32145
lfemur -18.9432 8.25381 -22.8771
ltibia 43.3756
lfoot -21.5154 3.10735
ltoes 5.55993
